<svg xmlns="http://www.w3.org/2000/svg" version="1.1" xmlns:xlink="http://www.w3.org/1999/xlink" xmlns:svgjs="http://svgjs.com/svgjs" width="1920" height="400" preserveAspectRatio="none" viewBox="0 0 1920 400"><g mask="url(&quot;#SvgjsMask1225&quot;)" fill="none"><g mask="url(&quot;#SvgjsMask1226&quot;)"><path d="M962.5 -12.5L962.5 12.5" stroke="rgba(249, 249, 249, 1)" stroke-width="4.17"></path><path d="M956.25 12.5 a6.25 6.25 0 1 0 12.5 0 a6.25 6.25 0 1 0 -12.5 0z" fill="rgba(249, 249, 249, 1)"></path><path d="M937.5 62.5L962.5 87.5L962.5 112.5L962.5 137.5L962.5 162.5M937.5 37.5L912.5 62.5M937.5 12.5L912.5 37.5L887.5 62.5M937.5 -12.5L937.5 12.5L937.5 37.5L937.5 62.5L937.5 87.5" stroke="rgba(249, 249, 249, 1)" stroke-width="4.17"></path><path d="M931.25 87.5 a6.25 6.25 0 1 0 12.5 0 a6.25 6.25 0 1 0 -12.5 0zM956.25 162.5 a6.25 6.25 0 1 0 12.5 0 a6.25 6.25 0 1 0 -12.5 0zM906.25 62.5 a6.25 6.25 0 1 0 12.5 0 a6.25 6.25 0 1 0 -12.5 0zM881.25 62.5 a6.25 6.25 0 1 0 12.5 0 a6.25 6.25 0 1 0 -12.5 0z" fill="rgba(249, 249, 249, 1)"></path><path d="M1062.5 87.5L1087.5 112.5L1087.5 137.5L1087.5 162.5M1062.5 12.5L1037.5 37.5L1037.5 62.5L1037.5 87.5M1062.5 62.5L1087.5 87.5M1037.5 -12.5L1062.5 12.5L1062.5 37.5L1062.5 62.5L1062.5 87.5L1062.5 112.5L1062.5 137.5L1062.5 162.5" stroke="rgba(249, 249, 249, 1)" stroke-width="4.17"></path><path d="M1056.25 162.5 a6.25 6.25 0 1 0 12.5 0 a6.25 6.25 0 1 0 -12.5 0zM1081.25 162.5 a6.25 6.25 0 1 0 12.5 0 a6.25 6.25 0 1 0 -12.5 0zM1031.25 87.5 a6.25 6.25 0 1 0 12.5 0 a6.25 6.25 0 1 0 -12.5 0zM1081.25 87.5 a6.25 6.25 0 1 0 12.5 0 a6.25 6.25 0 1 0 -12.5 0z" fill="rgba(249, 249, 249, 1)"></path><path d="M1062.5 -12.5L1087.5 12.5" stroke="rgba(249, 249, 249, 1)" stroke-width="4.17"></path><path d="M1081.25 12.5 a6.25 6.25 0 1 0 12.5 0 a6.25 6.25 0 1 0 -12.5 0z" fill="rgba(249, 249, 249, 1)"></path><path d="M812.5 12.5L837.5 37.5L837.5 62.5L862.5 87.5L862.5 112.5M837.5 -12.5L812.5 12.5L812.5 37.5L812.5 62.5L812.5 87.5L812.5 112.5" stroke="rgba(249, 249, 249, 1)" stroke-width="4.17"></path><path d="M806.25 112.5 a6.25 6.25 0 1 0 12.5 0 a6.25 6.25 0 1 0 -12.5 0zM856.25 112.5 a6.25 6.25 0 1 0 12.5 0 a6.25 6.25 0 1 0 -12.5 0z" fill="rgba(249, 249, 249, 1)"></path><path d="M1112.5 37.5L1087.5 62.5M1112.5 62.5L1137.5 87.5M1087.5 -12.5L1112.5 12.5L1112.5 37.5L1112.5 62.5L1112.5 87.5" stroke="rgba(249, 249, 249, 1)" stroke-width="4.17"></path><path d="M1106.25 87.5 a6.25 6.25 0 1 0 12.5 0 a6.25 6.25 0 1 0 -12.5 0zM1081.25 62.5 a6.25 6.25 0 1 0 12.5 0 a6.25 6.25 0 1 0 -12.5 0zM1131.25 87.5 a6.25 6.25 0 1 0 12.5 0 a6.25 6.25 0 1 0 -12.5 0z" fill="rgba(249, 249, 249, 1)"></path><path d="M787.5 137.5L812.5 162.5M812.5 -12.5L787.5 12.5L787.5 37.5L787.5 62.5L787.5 87.5L787.5 112.5L787.5 137.5L787.5 162.5" stroke="rgba(249, 249, 249, 1)" stroke-width="4.17"></path><path d="M781.25 162.5 a6.25 6.25 0 1 0 12.5 0 a6.25 6.25 0 1 0 -12.5 0zM806.25 162.5 a6.25 6.25 0 1 0 12.5 0 a6.25 6.25 0 1 0 -12.5 0z" fill="rgba(249, 249, 249, 1)"></path><path d="M1137.5 12.5L1137.5 37.5M1112.5 -12.5L1137.5 12.5L1162.5 37.5L1162.5 62.5L1162.5 87.5L1162.5 112.5" stroke="rgba(249, 249, 249, 1)" stroke-width="4.17"></path><path d="M1156.25 112.5 a6.25 6.25 0 1 0 12.5 0 a6.25 6.25 0 1 0 -12.5 0zM1131.25 37.5 a6.25 6.25 0 1 0 12.5 0 a6.25 6.25 0 1 0 -12.5 0z" fill="rgba(249, 249, 249, 1)"></path><path d="M787.5 -12.5L762.5 12.5L762.5 37.5L762.5 62.5L762.5 87.5L762.5 112.5" stroke="rgba(249, 249, 249, 1)" stroke-width="4.17"></path><path d="M756.25 112.5 a6.25 6.25 0 1 0 12.5 0 a6.25 6.25 0 1 0 -12.5 0z" fill="rgba(249, 249, 249, 1)"></path><path d="M1137.5 -12.5L1162.5 12.5L1187.5 37.5L1187.5 62.5L1187.5 87.5L1187.5 112.5" stroke="rgba(249, 249, 249, 1)" stroke-width="4.17"></path><path d="M1181.25 112.5 a6.25 6.25 0 1 0 12.5 0 a6.25 6.25 0 1 0 -12.5 0z" fill="rgba(249, 249, 249, 1)"></path><path d="M737.5 37.5L712.5 62.5M762.5 -12.5L737.5 12.5L737.5 37.5L737.5 62.5L737.5 87.5L737.5 112.5L737.5 137.5" stroke="rgba(249, 249, 249, 1)" stroke-width="4.17"></path><path d="M731.25 137.5 a6.25 6.25 0 1 0 12.5 0 a6.25 6.25 0 1 0 -12.5 0zM706.25 62.5 a6.25 6.25 0 1 0 12.5 0 a6.25 6.25 0 1 0 -12.5 0z" fill="rgba(249, 249, 249, 1)"></path><path d="M1162.5 -12.5L1187.5 12.5L1212.5 37.5L1212.5 62.5L1212.5 87.5" stroke="rgba(249, 249, 249, 1)" stroke-width="4.17"></path><path d="M1206.25 87.5 a6.25 6.25 0 1 0 12.5 0 a6.25 6.25 0 1 0 -12.5 0z" fill="rgba(249, 249, 249, 1)"></path><path d="M712.5 12.5L712.5 37.5M737.5 -12.5L712.5 12.5L687.5 37.5L687.5 62.5L712.5 87.5L712.5 112.5" stroke="rgba(249, 249, 249, 1)" stroke-width="4.17"></path><path d="M706.25 112.5 a6.25 6.25 0 1 0 12.5 0 a6.25 6.25 0 1 0 -12.5 0zM706.25 37.5 a6.25 6.25 0 1 0 12.5 0 a6.25 6.25 0 1 0 -12.5 0z" fill="rgba(249, 249, 249, 1)"></path><path d="M1187.5 -12.5L1212.5 12.5L1237.5 37.5L1237.5 62.5" stroke="rgba(249, 249, 249, 1)" stroke-width="4.17"></path><path d="M1231.25 62.5 a6.25 6.25 0 1 0 12.5 0 a6.25 6.25 0 1 0 -12.5 0z" fill="rgba(249, 249, 249, 1)"></path><path d="M712.5 -12.5L687.5 12.5L662.5 37.5L662.5 62.5" stroke="rgba(249, 249, 249, 1)" stroke-width="4.17"></path><path d="M656.25 62.5 a6.25 6.25 0 1 0 12.5 0 a6.25 6.25 0 1 0 -12.5 0z" fill="rgba(249, 249, 249, 1)"></path><path d="M1262.5 87.5L1237.5 112.5L1237.5 137.5L1237.5 162.5M1212.5 -12.5L1237.5 12.5L1262.5 37.5L1262.5 62.5L1262.5 87.5L1262.5 112.5" stroke="rgba(249, 249, 249, 1)" stroke-width="4.17"></path><path d="M1256.25 112.5 a6.25 6.25 0 1 0 12.5 0 a6.25 6.25 0 1 0 -12.5 0zM1231.25 162.5 a6.25 6.25 0 1 0 12.5 0 a6.25 6.25 0 1 0 -12.5 0z" fill="rgba(249, 249, 249, 1)"></path><path d="M687.5 -12.5L662.5 12.5L637.5 37.5L637.5 62.5L637.5 87.5" stroke="rgba(249, 249, 249, 1)" stroke-width="4.17"></path><path d="M631.25 87.5 a6.25 6.25 0 1 0 12.5 0 a6.25 6.25 0 1 0 -12.5 0z" fill="rgba(249, 249, 249, 1)"></path><path d="M1237.5 -12.5L1262.5 12.5L1287.5 37.5L1287.5 62.5L1287.5 87.5L1287.5 112.5L1287.5 137.5" stroke="rgba(249, 249, 249, 1)" stroke-width="4.17"></path><path d="M1281.25 137.5 a6.25 6.25 0 1 0 12.5 0 a6.25 6.25 0 1 0 -12.5 0z" fill="rgba(249, 249, 249, 1)"></path><path d="M612.5 137.5L637.5 162.5M612.5 112.5L637.5 137.5L662.5 162.5M662.5 -12.5L637.5 12.5L612.5 37.5L612.5 62.5L612.5 87.5L612.5 112.5L612.5 137.5L612.5 162.5" stroke="rgba(249, 249, 249, 1)" stroke-width="4.17"></path><path d="M606.25 162.5 a6.25 6.25 0 1 0 12.5 0 a6.25 6.25 0 1 0 -12.5 0zM631.25 162.5 a6.25 6.25 0 1 0 12.5 0 a6.25 6.25 0 1 0 -12.5 0zM656.25 162.5 a6.25 6.25 0 1 0 12.5 0 a6.25 6.25 0 1 0 -12.5 0z" fill="rgba(249, 249, 249, 1)"></path><path d="M1312.5 112.5L1337.5 137.5M1262.5 -12.5L1287.5 12.5L1312.5 37.5L1312.5 62.5L1312.5 87.5L1312.5 112.5L1312.5 137.5" stroke="rgba(249, 249, 249, 1)" stroke-width="4.17"></path><path d="M1306.25 137.5 a6.25 6.25 0 1 0 12.5 0 a6.25 6.25 0 1 0 -12.5 0zM1331.25 137.5 a6.25 6.25 0 1 0 12.5 0 a6.25 6.25 0 1 0 -12.5 0z" fill="rgba(249, 249, 249, 1)"></path><path d="M587.5 137.5L562.5 162.5M587.5 112.5L562.5 137.5L537.5 162.5M637.5 -12.5L612.5 12.5L587.5 37.5L587.5 62.5L587.5 87.5L587.5 112.5L587.5 137.5L587.5 162.5" stroke="rgba(249, 249, 249, 1)" stroke-width="4.17"></path><path d="M581.25 162.5 a6.25 6.25 0 1 0 12.5 0 a6.25 6.25 0 1 0 -12.5 0zM556.25 162.5 a6.25 6.25 0 1 0 12.5 0 a6.25 6.25 0 1 0 -12.5 0zM531.25 162.5 a6.25 6.25 0 1 0 12.5 0 a6.25 6.25 0 1 0 -12.5 0z" fill="rgba(249, 249, 249, 1)"></path><path d="M1287.5 -12.5L1312.5 12.5L1337.5 37.5L1337.5 62.5" stroke="rgba(249, 249, 249, 1)" stroke-width="4.17"></path><path d="M1331.25 62.5 a6.25 6.25 0 1 0 12.5 0 a6.25 6.25 0 1 0 -12.5 0z" fill="rgba(249, 249, 249, 1)"></path><path d="M1387.5 87.5L1412.5 112.5M1362.5 37.5L1362.5 62.5M1387.5 137.5L1362.5 162.5M1312.5 -12.5L1337.5 12.5L1362.5 37.5L1387.5 62.5L1387.5 87.5L1387.5 112.5L1387.5 137.5L1387.5 162.5" stroke="rgba(249, 249, 249, 1)" stroke-width="4.17"></path><path d="M1381.25 162.5 a6.25 6.25 0 1 0 12.5 0 a6.25 6.25 0 1 0 -12.5 0zM1406.25 112.5 a6.25 6.25 0 1 0 12.5 0 a6.25 6.25 0 1 0 -12.5 0zM1356.25 62.5 a6.25 6.25 0 1 0 12.5 0 a6.25 6.25 0 1 0 -12.5 0zM1356.25 162.5 a6.25 6.25 0 1 0 12.5 0 a6.25 6.25 0 1 0 -12.5 0z" fill="rgba(249, 249, 249, 1)"></path><path d="M587.5 -12.5L587.5 12.5" stroke="rgba(249, 249, 249, 1)" stroke-width="4.17"></path><path d="M581.25 12.5 a6.25 6.25 0 1 0 12.5 0 a6.25 6.25 0 1 0 -12.5 0z" fill="rgba(249, 249, 249, 1)"></path><path d="M1337.5 -12.5L1362.5 12.5" stroke="rgba(249, 249, 249, 1)" stroke-width="4.17"></path><path d="M1356.25 12.5 a6.25 6.25 0 1 0 12.5 0 a6.25 6.25 0 1 0 -12.5 0z" fill="rgba(249, 249, 249, 1)"></path><path d="M562.5 -12.5L562.5 12.5L562.5 37.5L562.5 62.5L562.5 87.5" stroke="rgba(249, 249, 249, 1)" stroke-width="4.17"></path><path d="M556.25 87.5 a6.25 6.25 0 1 0 12.5 0 a6.25 6.25 0 1 0 -12.5 0z" fill="rgba(249, 249, 249, 1)"></path><path d="M537.5 87.5L537.5 112.5L537.5 137.5M537.5 -12.5L537.5 12.5L537.5 37.5L537.5 62.5L537.5 87.5L512.5 112.5L512.5 137.5" stroke="rgba(249, 249, 249, 1)" stroke-width="4.17"></path><path d="M506.25 137.5 a6.25 6.25 0 1 0 12.5 0 a6.25 6.25 0 1 0 -12.5 0zM531.25 137.5 a6.25 6.25 0 1 0 12.5 0 a6.25 6.25 0 1 0 -12.5 0z" fill="rgba(249, 249, 249, 1)"></path><path d="M1387.5 12.5L1412.5 37.5L1437.5 62.5L1437.5 87.5L1437.5 112.5M1387.5 -12.5L1387.5 12.5L1387.5 37.5L1412.5 62.5" stroke="rgba(249, 249, 249, 1)" stroke-width="4.17"></path><path d="M1406.25 62.5 a6.25 6.25 0 1 0 12.5 0 a6.25 6.25 0 1 0 -12.5 0zM1431.25 112.5 a6.25 6.25 0 1 0 12.5 0 a6.25 6.25 0 1 0 -12.5 0z" fill="rgba(249, 249, 249, 1)"></path><path d="M487.5 112.5L462.5 137.5L462.5 162.5M512.5 62.5L487.5 87.5L462.5 112.5L437.5 137.5M512.5 -12.5L512.5 12.5L512.5 37.5L512.5 62.5L512.5 87.5L487.5 112.5L487.5 137.5" stroke="rgba(249, 249, 249, 1)" stroke-width="4.17"></path><path d="M481.25 137.5 a6.25 6.25 0 1 0 12.5 0 a6.25 6.25 0 1 0 -12.5 0zM456.25 162.5 a6.25 6.25 0 1 0 12.5 0 a6.25 6.25 0 1 0 -12.5 0zM431.25 137.5 a6.25 6.25 0 1 0 12.5 0 a6.25 6.25 0 1 0 -12.5 0z" fill="rgba(249, 249, 249, 1)"></path><path d="M487.5 12.5L462.5 37.5L462.5 62.5M487.5 -12.5L487.5 12.5L487.5 37.5" stroke="rgba(249, 249, 249, 1)" stroke-width="4.17"></path><path d="M481.25 37.5 a6.25 6.25 0 1 0 12.5 0 a6.25 6.25 0 1 0 -12.5 0zM456.25 62.5 a6.25 6.25 0 1 0 12.5 0 a6.25 6.25 0 1 0 -12.5 0z" fill="rgba(249, 249, 249, 1)"></path></g></g><defs><mask id="SvgjsMask1225"><rect width="1920" height="400" fill="#ffffff"></rect></mask><mask id="SvgjsMask1226"><rect width="1920" height="400" fill="white"></rect><path d="M959.37 12.5 a3.13 3.13 0 1 0 6.26 0 a3.13 3.13 0 1 0 -6.26 0z" fill="black"></path><path d="M934.37 87.5 a3.13 3.13 0 1 0 6.26 0 a3.13 3.13 0 1 0 -6.26 0zM959.37 162.5 a3.13 3.13 0 1 0 6.26 0 a3.13 3.13 0 1 0 -6.26 0zM909.37 62.5 a3.13 3.13 0 1 0 6.26 0 a3.13 3.13 0 1 0 -6.26 0zM884.37 62.5 a3.13 3.13 0 1 0 6.26 0 a3.13 3.13 0 1 0 -6.26 0z" fill="black"></path><path d="M1059.37 162.5 a3.13 3.13 0 1 0 6.26 0 a3.13 3.13 0 1 0 -6.26 0zM1084.37 162.5 a3.13 3.13 0 1 0 6.26 0 a3.13 3.13 0 1 0 -6.26 0zM1034.37 87.5 a3.13 3.13 0 1 0 6.26 0 a3.13 3.13 0 1 0 -6.26 0zM1084.37 87.5 a3.13 3.13 0 1 0 6.26 0 a3.13 3.13 0 1 0 -6.26 0z" fill="black"></path><path d="M1084.37 12.5 a3.13 3.13 0 1 0 6.26 0 a3.13 3.13 0 1 0 -6.26 0z" fill="black"></path><path d="M809.37 112.5 a3.13 3.13 0 1 0 6.26 0 a3.13 3.13 0 1 0 -6.26 0zM859.37 112.5 a3.13 3.13 0 1 0 6.26 0 a3.13 3.13 0 1 0 -6.26 0z" fill="black"></path><path d="M1109.37 87.5 a3.13 3.13 0 1 0 6.26 0 a3.13 3.13 0 1 0 -6.26 0zM1084.37 62.5 a3.13 3.13 0 1 0 6.26 0 a3.13 3.13 0 1 0 -6.26 0zM1134.37 87.5 a3.13 3.13 0 1 0 6.26 0 a3.13 3.13 0 1 0 -6.26 0z" fill="black"></path><path d="M784.37 162.5 a3.13 3.13 0 1 0 6.26 0 a3.13 3.13 0 1 0 -6.26 0zM809.37 162.5 a3.13 3.13 0 1 0 6.26 0 a3.13 3.13 0 1 0 -6.26 0z" fill="black"></path><path d="M1159.37 112.5 a3.13 3.13 0 1 0 6.26 0 a3.13 3.13 0 1 0 -6.26 0zM1134.37 37.5 a3.13 3.13 0 1 0 6.26 0 a3.13 3.13 0 1 0 -6.26 0z" fill="black"></path><path d="M759.37 112.5 a3.13 3.13 0 1 0 6.26 0 a3.13 3.13 0 1 0 -6.26 0z" fill="black"></path><path d="M1184.37 112.5 a3.13 3.13 0 1 0 6.26 0 a3.13 3.13 0 1 0 -6.26 0z" fill="black"></path><path d="M734.37 137.5 a3.13 3.13 0 1 0 6.26 0 a3.13 3.13 0 1 0 -6.26 0zM709.37 62.5 a3.13 3.13 0 1 0 6.26 0 a3.13 3.13 0 1 0 -6.26 0z" fill="black"></path><path d="M1209.37 87.5 a3.13 3.13 0 1 0 6.26 0 a3.13 3.13 0 1 0 -6.26 0z" fill="black"></path><path d="M709.37 112.5 a3.13 3.13 0 1 0 6.26 0 a3.13 3.13 0 1 0 -6.26 0zM709.37 37.5 a3.13 3.13 0 1 0 6.26 0 a3.13 3.13 0 1 0 -6.26 0z" fill="black"></path><path d="M1234.37 62.5 a3.13 3.13 0 1 0 6.26 0 a3.13 3.13 0 1 0 -6.26 0z" fill="black"></path><path d="M659.37 62.5 a3.13 3.13 0 1 0 6.26 0 a3.13 3.13 0 1 0 -6.26 0z" fill="black"></path><path d="M1259.37 112.5 a3.13 3.13 0 1 0 6.26 0 a3.13 3.13 0 1 0 -6.26 0zM1234.37 162.5 a3.13 3.13 0 1 0 6.26 0 a3.13 3.13 0 1 0 -6.26 0z" fill="black"></path><path d="M634.37 87.5 a3.13 3.13 0 1 0 6.26 0 a3.13 3.13 0 1 0 -6.26 0z" fill="black"></path><path d="M1284.37 137.5 a3.13 3.13 0 1 0 6.26 0 a3.13 3.13 0 1 0 -6.26 0z" fill="black"></path><path d="M609.37 162.5 a3.13 3.13 0 1 0 6.26 0 a3.13 3.13 0 1 0 -6.26 0zM634.37 162.5 a3.13 3.13 0 1 0 6.26 0 a3.13 3.13 0 1 0 -6.26 0zM659.37 162.5 a3.13 3.13 0 1 0 6.26 0 a3.13 3.13 0 1 0 -6.26 0z" fill="black"></path><path d="M1309.37 137.5 a3.13 3.13 0 1 0 6.26 0 a3.13 3.13 0 1 0 -6.26 0zM1334.37 137.5 a3.13 3.13 0 1 0 6.26 0 a3.13 3.13 0 1 0 -6.26 0z" fill="black"></path><path d="M584.37 162.5 a3.13 3.13 0 1 0 6.26 0 a3.13 3.13 0 1 0 -6.26 0zM559.37 162.5 a3.13 3.13 0 1 0 6.26 0 a3.13 3.13 0 1 0 -6.26 0zM534.37 162.5 a3.13 3.13 0 1 0 6.26 0 a3.13 3.13 0 1 0 -6.26 0z" fill="black"></path><path d="M1334.37 62.5 a3.13 3.13 0 1 0 6.26 0 a3.13 3.13 0 1 0 -6.26 0z" fill="black"></path><path d="M1384.37 162.5 a3.13 3.13 0 1 0 6.26 0 a3.13 3.13 0 1 0 -6.26 0zM1409.37 112.5 a3.13 3.13 0 1 0 6.26 0 a3.13 3.13 0 1 0 -6.26 0zM1359.37 62.5 a3.13 3.13 0 1 0 6.26 0 a3.13 3.13 0 1 0 -6.26 0zM1359.37 162.5 a3.13 3.13 0 1 0 6.26 0 a3.13 3.13 0 1 0 -6.26 0z" fill="black"></path><path d="M584.37 12.5 a3.13 3.13 0 1 0 6.26 0 a3.13 3.13 0 1 0 -6.26 0z" fill="black"></path><path d="M1359.37 12.5 a3.13 3.13 0 1 0 6.26 0 a3.13 3.13 0 1 0 -6.26 0z" fill="black"></path><path d="M559.37 87.5 a3.13 3.13 0 1 0 6.26 0 a3.13 3.13 0 1 0 -6.26 0z" fill="black"></path><path d="M509.37 137.5 a3.13 3.13 0 1 0 6.26 0 a3.13 3.13 0 1 0 -6.26 0zM534.37 137.5 a3.13 3.13 0 1 0 6.26 0 a3.13 3.13 0 1 0 -6.26 0z" fill="black"></path><path d="M1409.37 62.5 a3.13 3.13 0 1 0 6.26 0 a3.13 3.13 0 1 0 -6.26 0zM1434.37 112.5 a3.13 3.13 0 1 0 6.26 0 a3.13 3.13 0 1 0 -6.26 0z" fill="black"></path><path d="M484.37 137.5 a3.13 3.13 0 1 0 6.26 0 a3.13 3.13 0 1 0 -6.26 0zM459.37 162.5 a3.13 3.13 0 1 0 6.26 0 a3.13 3.13 0 1 0 -6.26 0zM434.37 137.5 a3.13 3.13 0 1 0 6.26 0 a3.13 3.13 0 1 0 -6.26 0z" fill="black"></path><path d="M484.37 37.5 a3.13 3.13 0 1 0 6.26 0 a3.13 3.13 0 1 0 -6.26 0zM459.37 62.5 a3.13 3.13 0 1 0 6.26 0 a3.13 3.13 0 1 0 -6.26 0z" fill="black"></path></mask></defs></svg>